<svg version="1.1" id="Capa_1" xmlns="http://www.w3.org/2000/svg" x="0" y="0" viewBox="0 0 309 101" xml:space="preserve"><path d="M137 11h164v80H137zM11.01 63.13c0-8 6.62-12.08 23.5-13.11-.37-3.19-2.78-5.15-7.57-5.15-3.45 0-6.87 1.33-10.89 3.35l-3.78-6.94c4.95-2.82 10.65-4.83 16.72-4.83 10.04 0 16.13 5.22 16.13 16.17v20.42h-8.66l-.76-4.03h-.27c-3.61 2.71-8.08 4.89-12.66 4.89-7.24 0-11.76-4.77-11.76-10.77zm23.5-.85v-5.85c-10.51.52-13.34 2.8-13.34 5.85 0 2.3 1.94 3.41 4.93 3.41 3.19.01 5.88-1.45 8.41-3.41zm20.11-7.09c0-11.89 9.66-18.75 20.66-18.75 5.64 0 10.38 1.99 13.37 4.85l-4.87 6.57C81.05 45.89 78.55 45 75.86 45c-6.14 0-10.39 4-10.39 10.19 0 6.17 4.17 10.15 10.04 10.15 3.75 0 6.83-1.63 9.4-3.41l4.28 6.69c-4.3 3.61-9.8 5.26-14.68 5.26-11.26.02-19.89-6.84-19.89-18.69zM98.19 22.6h10.6v12.3l-.62 6.88h.27c2.65-2.75 6.49-5.33 11.84-5.33 8.02 0 11.58 5.52 11.58 14.53v22.06h-10.6v-20.7c0-4.75-1.37-6.86-5.24-6.86-2.83 0-4.75 1.31-7.22 3.72v23.84H98.2V22.6z" fill="#fff"/><path d="M156.23 45.62h-14.38v-8.3h24.98v35.72h-10.6V45.62zm-2.22-20.37c0-3.88 2.95-6.58 7.04-6.58s7.04 2.7 7.04 6.58c0 3.9-2.95 6.48-7.04 6.48s-7.04-2.58-7.04-6.48zm30.21 29.94c0-11.89 9.66-18.75 20.66-18.75 5.64 0 10.38 1.99 13.37 4.85l-4.88 6.57c-2.72-1.98-5.23-2.87-7.91-2.87-6.14 0-10.39 4-10.39 10.19 0 6.17 4.17 10.15 10.04 10.15 3.75 0 6.83-1.63 9.4-3.41l4.27 6.69c-4.3 3.61-9.8 5.26-14.68 5.26-11.25.03-19.88-6.83-19.88-18.68zm43.81-32.59h10.6v29.08h.29l13.13-14.36h11.57l-24.99 26.74v8.99h-10.6V22.6zm14.87 34.24l6.09-6.59 15.77 22.78h-11.51L242.9 56.84z" fill="#d71332"/></svg>