<?xml version="1.0" standalone="no"?>
<!DOCTYPE svg PUBLIC "-//W3C//DTD SVG 20010904//EN"
 "http://www.w3.org/TR/2001/REC-SVG-20010904/DTD/svg10.dtd">
<svg version="1.0" xmlns="http://www.w3.org/2000/svg"
 width="512.000000pt" height="512.000000pt" viewBox="0 0 512.000000 512.000000"
 preserveAspectRatio="xMidYMid meet">
<metadata>
Created by potrace 1.14, written by Peter Selinger 2001-2017
</metadata>
<g transform="translate(0.000000,512.000000) scale(0.100000,-0.100000)"
fill="#000000" stroke="none">
<path d="M0 2560 l0 -2560 2560 0 2560 0 0 2560 0 2560 -2560 0 -2560 0 0
-2560z m4200 -110 l0 -400 -820 0 -820 0 0 400 0 400 820 0 820 0 0 -400z
m-1925 192 c0 -50 3 -92 6 -92 4 0 12 6 18 13 16 20 86 38 118 31 74 -18 93
-65 93 -234 l0 -130 -55 0 -55 0 0 123 c0 134 -5 147 -54 147 -57 0 -66 -20
-66 -152 l0 -118 -55 0 -55 0 0 248 c0 137 3 252 7 256 4 4 28 6 53 4 l45 -3
0 -93z m-702 -70 c55 -32 67 -71 67 -214 l0 -128 -45 0 c-38 0 -45 3 -45 19 0
19 -3 19 -56 -6 -43 -19 -66 -24 -97 -20 -83 11 -126 107 -77 170 22 28 87 53
163 63 50 7 56 14 31 38 -19 20 -69 20 -122 2 -43 -16 -48 -14 -71 31 -13 26
-2 35 81 58 62 17 129 12 171 -13z m463 2 c40 -19 41 -25 13 -64 -21 -28 -23
-28 -50 -14 -42 21 -83 17 -118 -12 -27 -22 -31 -32 -31 -75 0 -40 5 -55 25
-74 29 -30 89 -34 135 -10 29 15 30 15 50 -17 24 -39 16 -51 -47 -72 -149 -51
-278 34 -275 180 3 137 163 222 298 158z"/>
<path d="M2750 2750 c-50 -50 8 -125 77 -99 33 12 43 26 43 60 0 54 -79 80
-120 39z"/>
<path d="M3480 2732 c-6 -2 -10 -93 -10 -253 l0 -249 50 0 50 0 0 43 c0 35 6
49 30 72 16 16 31 27 33 24 2 -2 22 -34 46 -71 l43 -68 54 0 c30 0 54 2 54 5
0 3 -32 51 -70 106 l-71 100 67 72 67 72 -54 3 -54 4 -65 -71 c-36 -39 -69
-71 -73 -71 -5 0 -7 63 -5 139 l3 139 -42 4 c-24 2 -47 2 -53 0z"/>
<path d="M2610 2550 l0 -40 70 0 70 0 0 -140 0 -140 55 0 55 0 0 180 0 180
-125 0 -125 0 0 -40z"/>
<path d="M3132 2569 c-51 -25 -78 -61 -91 -120 -16 -72 5 -137 59 -183 61 -51
158 -58 240 -16 l39 20 -20 35 c-20 34 -21 34 -49 20 -71 -36 -153 -6 -166 61
-17 90 75 154 156 110 23 -13 26 -12 47 17 13 17 23 32 23 34 0 2 -15 12 -32
23 -46 28 -148 27 -206 -1z"/>
<path d="M1433 2378 c-27 -13 -39 -46 -24 -61 14 -14 72 -13 100 2 14 8 21 21
21 41 0 28 -2 30 -37 29 -21 0 -48 -5 -60 -11z"/>
</g>
</svg>
