<?xml version="1.0" encoding="utf-8"?>
<!-- Generator: Adobe Illustrator 25.4.1, SVG Export Plug-In . SVG Version: 6.00 Build 0)  -->
<svg version="1.1" id="Capa_1" xmlns="http://www.w3.org/2000/svg" xmlns:xlink="http://www.w3.org/1999/xlink" x="0px" y="0px"
	 viewBox="0 0 309 101" style="enable-background:new 0 0 309 101;" xml:space="preserve">
<style type="text/css">
	.st0{display:none;fill:#D71332;}
	.st1{fill:#FFFFFF;}
	.st2{fill:#D71332;}
</style>
<rect x="-119" y="-216" class="st0" width="512" height="512"/>
<rect x="137" y="11" class="st1" width="164" height="80"/>
<g>
	<path class="st1" d="M11.01,63.13c0-8,6.62-12.08,23.5-13.11c-0.37-3.19-2.78-5.15-7.57-5.15c-3.45,0-6.87,1.33-10.89,3.35
		l-3.78-6.94c4.95-2.82,10.65-4.83,16.72-4.83c10.04,0,16.13,5.22,16.13,16.17v20.42h-8.66l-0.76-4.03h-0.27
		c-3.61,2.71-8.08,4.89-12.66,4.89C15.53,73.9,11.01,69.13,11.01,63.13z M34.51,62.28v-5.85C24,56.95,21.17,59.23,21.17,62.28
		c0,2.3,1.94,3.41,4.93,3.41C29.29,65.7,31.98,64.24,34.51,62.28z"/>
	<path class="st1" d="M54.62,55.19c0-11.89,9.66-18.75,20.66-18.75c5.64,0,10.38,1.99,13.37,4.85l-4.87,6.57
		C81.05,45.89,78.55,45,75.86,45c-6.14,0-10.39,4-10.39,10.19c0,6.17,4.17,10.15,10.04,10.15c3.75,0,6.83-1.63,9.4-3.41l4.28,6.69
		c-4.3,3.61-9.8,5.26-14.68,5.26C63.25,73.9,54.62,67.04,54.62,55.19z"/>
	<path class="st1" d="M98.19,22.6h10.6V34.9l-0.62,6.88h0.27c2.65-2.75,6.49-5.33,11.84-5.33c8.02,0,11.58,5.52,11.58,14.53v22.06
		h-10.6V52.34c0-4.75-1.37-6.86-5.24-6.86c-2.83,0-4.75,1.31-7.22,3.72v23.84h-10.6V22.6z"/>
	<path class="st2" d="M156.23,45.62h-14.38v-8.3h24.98v35.72h-10.6V45.62z M154.01,25.25c0-3.88,2.95-6.58,7.04-6.58
		s7.04,2.7,7.04,6.58c0,3.9-2.95,6.48-7.04,6.48S154.01,29.15,154.01,25.25z"/>
	<path class="st2" d="M184.22,55.19c0-11.89,9.66-18.75,20.66-18.75c5.64,0,10.38,1.99,13.37,4.85l-4.88,6.57
		c-2.72-1.98-5.23-2.87-7.91-2.87c-6.14,0-10.39,4-10.39,10.19c0,6.17,4.17,10.15,10.04,10.15c3.75,0,6.83-1.63,9.4-3.41l4.27,6.69
		c-4.3,3.61-9.8,5.26-14.68,5.26C192.85,73.9,184.22,67.04,184.22,55.19z"/>
	<path class="st2" d="M228.03,22.6h10.6v29.08h0.29l13.13-14.36h11.57l-24.99,26.74v8.99h-10.6V22.6z M242.9,56.84l6.09-6.59
		l15.77,22.78h-11.51L242.9,56.84z"/>
</g>
<g>
</g>
<g>
</g>
<g>
</g>
<g>
</g>
<g>
</g>
<g>
</g>
<g>
</g>
<g>
</g>
<g>
</g>
<g>
</g>
<g>
</g>
<g>
</g>
<g>
</g>
<g>
</g>
<g>
</g>
</svg>
